<svg preserveAspectRatio="none" width="100%" height="100%" overflow="visible" style="display: block;" viewBox="0 0 19.933 19.9424" fill="none" xmlns="http://www.w3.org/2000/svg">
<path id="Vector" d="M8.15701 0H11.7694C11.8404 0.0522781 12.2477 0.0411857 12.3619 0.0503689C12.6972 0.0773354 13.0566 0.115215 13.3834 0.163314C17.1783 0.721947 19.7185 3.76525 19.8879 7.54557C19.8963 7.73545 19.8906 7.97697 19.9289 8.15729C19.9302 8.1601 19.9316 8.16291 19.933 8.16572V11.7918C19.8865 11.9284 19.8654 12.7058 19.8379 12.9363C19.7203 13.994 19.4068 15.0206 18.9136 15.9636C18.7869 16.2043 18.6085 16.5199 18.4057 16.7033C18.3805 16.75 18.3399 16.8064 18.3086 16.8507C16.9166 18.8225 14.5414 19.777 12.1928 19.9143C11.1232 19.9748 10.0225 19.9031 8.95576 19.9359C5.4851 20.043 2.2983 18.8421 0.783239 15.5004C0.490263 14.8409 0.28286 14.1466 0.166083 13.4345C-0.0304856 12.2443 0.00690345 11.4271 0.00455579 10.232C0.000968094 8.40543 -0.0768259 6.71283 0.584444 4.96176C1.26349 3.16361 2.52178 1.7227 4.28264 0.924311C4.93272 0.487061 5.68275 0.329518 6.44545 0.181698C6.85359 0.102594 7.33529 0.0668361 7.74852 0.0454785C7.84709 0.0403844 8.08969 0.0473957 8.15701 0Z" fill="var(--fill-0, white)"/>
</svg>
